<?xml version="1.0" encoding="utf-8"?>
<!-- Generator: Adobe Illustrator 23.0.1, SVG Export Plug-In . SVG Version: 6.00 Build 0)  -->
<svg version="1.1" id="Layer_1" xmlns="http://www.w3.org/2000/svg" xmlns:xlink="http://www.w3.org/1999/xlink" x="0px" y="0px"
	 viewBox="0 0 512 512" style="enable-background:new 0 0 512 512;" xml:space="preserve">
<style type="text/css">
	.st0{fill-rule:evenodd;clip-rule:evenodd;fill:#1B1B1B;}
</style>
<path class="st0" d="M422.1,389.3H89.9c-18.7,0-33.9-15-33.9-33.3V156c0-18.4,15.2-33.3,33.9-33.3h332.2c18.7,0,33.9,14.9,33.9,33.3
	v200C456,374.4,440.8,389.3,422.1,389.3z M439.3,156c0-9.2-7.7-16.7-17.2-16.7H89.9c-9.5,0-17.2,7.5-17.2,16.7v25h366.7V156z
	 M439.3,214.3H72.7V356c0,9.2,7.7,16.7,17.2,16.7h332.2c9.5,0,17.2-7.5,17.2-16.7V214.3z M389.3,339.3h-50c-4.6,0-8.3-3.7-8.3-8.3
	s3.7-8.3,8.3-8.3h50c4.6,0,8.3,3.7,8.3,8.3S393.9,339.3,389.3,339.3z"/>
</svg>
