<svg version="1.2" baseProfile="tiny-ps" xmlns="http://www.w3.org/2000/svg" viewBox="0 0 901 265" width="901" height="265">
	<title>Layer 1</title>
	<style>
		tspan { white-space:pre }
		.shp0 { fill: #30b27e } 
		.shp1 { fill: #362688 } 
	</style>
	<g id="Layer 1">
		<g id="&lt;Group&gt;">
			<path id="&lt;Compound Path&gt;" fill-rule="evenodd" class="shp0" d="M584.61 56.07L608.32 56.07L608.32 67.28C615.53 58.26 626.23 53.36 639.49 53.36C666.81 53.36 686.39 75.13 686.39 106.31C686.39 137.49 666.68 159.65 639.49 159.65C626.1 159.65 615.53 154.49 608.32 145.47L608.32 195.85L584.61 195.85L584.61 56.07ZM608.32 93.43L608.32 119.2C613.34 129.63 622.36 137.23 635.37 137.23C651.09 137.23 661.66 125.51 661.66 106.18C661.66 87.12 651.09 75.52 635.37 75.52C622.36 75.65 613.34 82.74 608.32 93.43Z" />
			<path id="&lt;Compound Path&gt;" fill-rule="evenodd" class="shp0" d="M701.72 127.96C701.72 110.95 712.28 99.1 729.8 96.91L770.13 91.75L770.13 86.73C770.13 80.68 767.04 77.45 761.37 77.45L710.74 77.45L710.74 55.94L762.27 55.94C782.75 55.94 793.96 65.99 793.96 83.77L793.96 156.56L770 156.56L770 144.32C763.04 154.11 751.58 159.65 736.76 159.65C715.89 159.65 701.72 146.89 701.72 127.96ZM742.56 140.32C754.67 140.32 765.88 133.49 770 123.45L770 110.82L739.21 115.07C730.71 116.23 725.94 120.74 725.94 128.08C725.94 135.94 731.99 140.32 742.56 140.32Z" />
			<path id="&lt;Path&gt;" class="shp0" d="M811.22 174.33L828.49 174.33C835.06 174.33 838.02 171.63 840.21 165.44L843.3 156.55L806.72 55.94L831.45 55.94L854.25 126.02L854.77 126.02L876.54 55.94L900.89 55.94L860.82 171.5C855.41 187.34 848.2 195.85 830.55 195.85L811.23 195.85L811.22 174.33Z" />
			<path id="&lt;Compound Path&gt;" class="shp1" d="M18.67 238.88C8.75 228.96 2.18 216.59 0.89 202.55L47.91 192.24C48.3 199.58 51.26 206.28 56.16 211.18C63.12 218.65 74.2 223.16 87.85 223.16C106.79 223.16 118.38 215.69 118.38 202.93C118.38 192.63 111.43 186.83 95.71 183.09L64.4 175.62C45.47 170.99 31.04 163.64 21.12 153.72C11.2 143.93 6.3 131.05 6.3 115.85C6.3 98.45 13.26 82.87 25.63 71.27C40.18 58.13 61.18 49.89 86.3 49.89C113.49 49.89 136.55 59.29 151.62 74.11C161.02 83.64 167.21 95.23 168.5 108.37L122.76 118.68C121.86 112.11 119.03 106.31 114.9 101.8C108.33 95.23 98.41 91.5 86.82 91.5C68.27 91.5 56.67 99.74 56.67 111.72C56.67 120.87 64.15 127.44 77.29 129.89L108.98 136.07C128.3 139.81 143.63 147.67 154.33 158.36C165.02 169.05 170.82 183.1 170.82 198.68C170.82 215.95 164.25 230.89 153.04 241.97C138.09 256.4 115.42 265.03 87.85 265.03C59.51 265.03 34.26 255.24 18.67 238.88ZM360.58 235.01C341.26 215.56 329.28 188.76 329.28 157.46C329.28 126.15 340.87 99.23 359.81 79.9C378.75 60.84 405.16 49.76 434.4 49.76C466.09 49.76 490.06 61.22 506.55 77.33C518.01 89.31 525.87 103.74 529.61 118.16L480.52 134.65C478.07 126.8 474.34 118.94 468.15 112.75C460.68 105.28 450.38 100.39 435.56 100.39C421.52 100.39 408.63 105.28 399.23 114.81C389.7 124.73 383.9 138.78 383.9 157.33C383.9 175.49 389.7 189.92 399.23 199.84C408.76 209.25 421.9 214.66 435.95 214.66C451.28 214.66 461.97 209.38 469.83 201.9C476.4 195.85 480.52 187.99 482.58 180.52L530.76 196.62C526.64 211.44 518.78 225.87 506.03 238.23C489.93 253.95 466.48 265.03 435.95 265.03C406.19 265.03 379.39 253.95 360.58 235.01ZM219.77 247.51C209.47 236.82 203.67 221.49 203.67 202.55L203.67 108.89L312.53 108.89L312.53 56.07L203.67 56.07L203.67 0.42L258.16 0.42L258.16 189.15C258.16 198.56 260.22 205.64 264.35 209.76C269.24 214.27 275.81 216.33 284.96 216.33C297.84 216.33 307.63 211.82 312.66 208.09L312.66 252.66C306.09 258.46 290.76 265.03 269.37 265.03C248.37 265.03 231.37 258.85 219.77 247.51Z" />
		</g>
	</g>
</svg>